<svg width="18" height="18" viewBox="0 0 18 18" fill="none" xmlns="http://www.w3.org/2000/svg">
<path fill-rule="evenodd" clip-rule="evenodd" d="M3 2C2.44772 2 2 2.44772 2 3V15C2 15.5523 2.44772 16 3 16H15C15.5523 16 16 15.5523 16 15V3C16 2.44772 15.5523 2 15 2H3ZM9.5 5C9.5 4.72386 9.27614 4.5 9 4.5C8.72386 4.5 8.5 4.72386 8.5 5V8.5H5C4.72386 8.5 4.5 8.72386 4.5 9C4.5 9.27614 4.72386 9.5 5 9.5H8.5V13C8.5 13.2761 8.72386 13.5 9 13.5C9.27614 13.5 9.5 13.2761 9.5 13V9.5H13C13.2761 9.5 13.5 9.27614 13.5 9C13.5 8.72386 13.2761 8.5 13 8.5H9.5V5Z" fill="#B3B3B3"/>
</svg>
