<svg width="18" height="18" viewBox="0 0 18 18" fill="none" xmlns="http://www.w3.org/2000/svg">
<path d="M15.0278 16H11.5278C10.9907 16 10.5556 15.5983 10.5556 15.1026V11.8718C10.5556 11.4751 10.2075 11.1538 9.77778 11.1538H8.22222C7.7925 11.1538 7.44444 11.4751 7.44444 11.8718V15.1026C7.44444 15.5983 7.00928 16 6.47222 16H2.97222C2.43517 16 2 15.5983 2 15.1026V8.25082C2 7.42554 2.40989 6.64585 3.11183 6.13538L8.63872 2.11523C8.85067 1.96159 9.14933 1.96159 9.36089 2.11523L14.8886 6.13538C15.5905 6.64585 16 7.42518 16 8.2501V15.1026C16 15.5983 15.5648 16 15.0278 16Z" fill="white"/>
</svg>
