<svg width="18" height="18" viewBox="0 0 18 18" fill="none" xmlns="http://www.w3.org/2000/svg">
<path d="M4.33333 3.16667C4.33333 2.52233 3.811 2 3.16667 2C2.52233 2 2 2.52233 2 3.16667V14.8333C2 15.4777 2.52233 16 3.16667 16C3.811 16 4.33333 15.4777 4.33333 14.8333V3.16667Z" fill="#B3B3B3"/>
<path d="M8.33333 3.16667C8.33333 2.52233 7.811 2 7.16667 2C6.52233 2 6 2.52233 6 3.16667V14.8333C6 15.4777 6.52233 16 7.16667 16C7.811 16 8.33333 15.4777 8.33333 14.8333V3.16667Z" fill="#B3B3B3"/>
<path fill-rule="evenodd" clip-rule="evenodd" d="M12.2917 3.04232C12.1054 2.4255 11.4544 2.07646 10.8376 2.26272C10.2207 2.44898 9.8717 3.10001 10.058 3.71683L13.4305 14.8854C13.6168 15.5022 14.2678 15.8513 14.8846 15.665C15.5015 15.4787 15.8505 14.8277 15.6642 14.2109L12.2917 3.04232ZM10.9532 2.64564C11.3585 2.52324 11.7864 2.75261 11.9088 3.15795L15.2813 14.3265C15.4037 14.7319 15.1743 15.1597 14.769 15.2821C14.3637 15.4045 13.9358 15.1751 13.8134 14.7698L10.4409 3.6012C10.3185 3.19586 10.5478 2.76804 10.9532 2.64564Z" fill="#B3B3B3"/>
</svg>
