<svg width="18" height="18" viewBox="0 0 18 18" fill="none" xmlns="http://www.w3.org/2000/svg">
<path d="M7.82981 2C4.617 2 2 4.617 2 7.82981C2 11.0426 4.617 13.6596 7.82981 13.6596C9.22693 13.6596 10.51 13.1635 11.5156 12.3399L14.9964 15.8208C15.0501 15.8767 15.1144 15.9214 15.1856 15.9522C15.2568 15.9829 15.3335 15.9992 15.411 16C15.4886 16.0008 15.5655 15.9861 15.6373 15.9567C15.7091 15.9274 15.7744 15.8841 15.8292 15.8292C15.8841 15.7744 15.9274 15.7091 15.9567 15.6373C15.9861 15.5655 16.0008 15.4886 16 15.411C15.9992 15.3335 15.9829 15.2568 15.9522 15.1856C15.9214 15.1144 15.8767 15.0501 15.8208 14.9964L12.3399 11.5156C13.1635 10.51 13.6596 9.22693 13.6596 7.82981C13.6596 4.617 11.0426 2 7.82981 2ZM7.82981 3.16596C10.4125 3.16596 12.4937 5.24713 12.4937 7.82981C12.4937 10.4125 10.4125 12.4937 7.82981 12.4937C5.24713 12.4937 3.16596 10.4125 3.16596 7.82981C3.16596 5.24713 5.24713 3.16596 7.82981 3.16596Z" fill="white" fill-opacity="0.6"/>
</svg>
